# xmcd
#
# Track frame offsets: 
#        300
#        22207
#        40949
#        65312
#        81618
#        108157
#        128378
#        149574
#        173816
#        197110
#
# Disc length: 3125 seconds
#
# Revision: 0
# Processed by: cddbd v1.5.2PL0 Copyright (c) Steve Scherf et al.
# Submitted via: ExactAudioCopy v1.0b1
#
DISCID=8e0c310a
DTITLE=Joanne Shaw Taylor - White Sugar
DYEAR=2009
DGENRE=General Blues
TTITLE0=Going Home
TTITLE1=Just Another Word
TTITLE2=Bones
TTITLE3=Who Do You Want Me To Be?
TTITLE4=Time Has Come
TTITLE5=White Sugar
TTITLE6=Kiss The Ground Goodbye
TTITLE7=Heavy Heart
TTITLE8=Watch 'Em Burn
TTITLE9=Blackest Day
EXTD=
EXTT0=
EXTT1=
EXTT2=
EXTT3=
EXTT4=
EXTT5=
EXTT6=
EXTT7=
EXTT8=
EXTT9=
PLAYORDER=
